<svg xmlns="http://www.w3.org/2000/svg" version="1.1" xmlns:xlink="http://www.w3.org/1999/xlink" xmlns:svgjs="http://svgjs.com/svgjs" width="1980" height="1080" preserveAspectRatio="none" viewBox="0 0 1980 1080"><g mask="url(&quot;#SvgjsMask2368&quot;)" fill="none"><rect width="1980" height="1080" x="0" y="0" fill="url(#SvgjsLinearGradient2369)"></rect><path d="M34 1080L1114 0L1568.5 0L488.5 1080z" fill="url(#SvgjsLinearGradient2370)"></path><path d="M670.4 1080L1750.4 0L2464.4 0L1384.4 1080z" fill="url(#SvgjsLinearGradient2370)"></path><path d="M1857 1080L777 0L171 0L1251 1080z" fill="url(#SvgjsLinearGradient2371)"></path><path d="M1281.6 1080L201.5999999999999 0L-744.9000000000001 0L335.0999999999999 1080z" fill="url(#SvgjsLinearGradient2371)"></path><path d="M1368.309412496425 1080L1980 468.3094124964249L1980 1080z" fill="url(#SvgjsLinearGradient2370)"></path><path d="M0 1080L611.6905875035751 1080L 0 468.3094124964249z" fill="url(#SvgjsLinearGradient2371)"></path></g><defs><mask id="SvgjsMask2368"><rect width="1980" height="1080" fill="#ffffff"></rect></mask><linearGradient x1="50%" y1="0%" x2="50%" y2="100%" gradientUnits="userSpaceOnUse" id="SvgjsLinearGradient2369"><stop stop-color="#0e2a47" offset="0"></stop><stop stop-color="rgba(0, 69, 158, 1)" offset="0"></stop><stop stop-color="rgba(0, 63, 143, 1)" offset="0.57"></stop><stop stop-color="#00459e" offset="1"></stop></linearGradient><linearGradient x1="0%" y1="100%" x2="100%" y2="0%" id="SvgjsLinearGradient2370"><stop stop-color="rgba(15, 70, 185, 0.2)" offset="0"></stop><stop stop-opacity="0" stop-color="rgba(15, 70, 185, 0.2)" offset="0.66"></stop></linearGradient><linearGradient x1="100%" y1="100%" x2="0%" y2="0%" id="SvgjsLinearGradient2371"><stop stop-color="rgba(15, 70, 185, 0.2)" offset="0"></stop><stop stop-opacity="0" stop-color="rgba(15, 70, 185, 0.2)" offset="0.66"></stop></linearGradient></defs></svg>